<svg width="18" height="22" viewBox="0 0 18 22" fill="none" xmlns="http://www.w3.org/2000/svg">
<path d="M0 8.4082L6.09462 10.2645V21.4092L0 19.5529V8.4082Z" fill="#F68D7C"/>
<path d="M11.9054 8.4082L18 10.2645V21.4092L11.9054 19.5529V8.4082Z" fill="#F68D7C"/>
<path d="M12.1893 8.4082L6.09471 10.2645V21.4092L12.1893 19.5529V8.4082Z" fill="#F36E5B"/>
<path d="M9.00024 0C12.0335 1.54628e-06 14.4924 2.45894 14.4924 5.49219C14.4924 6.6781 14.115 7.77517 13.4758 8.67285L9.66821 14.3408C9.35307 14.8092 8.66404 14.8092 8.34888 14.3408L4.68384 8.88574C3.94823 7.95145 3.50811 6.77356 3.50806 5.49219C3.50806 2.45894 5.96699 0 9.00024 0Z" fill="#222222"/>
<circle cx="9.00024" cy="5.49219" r="2.5" fill="white"/>
</svg>
